<svg xmlns="http://www.w3.org/2000/svg" width="900" height="600" viewBox="0 0 900 600" fill="none">
  <rect width="900" height="600" rx="32" fill="#F8FAFC"/>
  <rect x="70" y="80" width="760" height="440" rx="24" fill="#FFFFFF" stroke="#E2E8F0" stroke-width="2"/>
  <rect x="110" y="130" width="300" height="14" rx="7" fill="#E2E8F0"/>
  <rect x="110" y="165" width="220" height="44" rx="16" fill="#F1F5F9"/>
  <rect x="110" y="230" width="220" height="44" rx="16" fill="#F1F5F9"/>
  <rect x="110" y="295" width="220" height="44" rx="16" fill="#F1F5F9"/>
  <rect x="110" y="360" width="220" height="44" rx="16" fill="#F1F5F9"/>
  <rect x="370" y="165" width="420" height="240" rx="18" fill="#F8FAFC" stroke="#E2E8F0" stroke-width="2"/>
  <rect x="400" y="200" width="160" height="12" rx="6" fill="#CBD5E1"/>
  <rect x="400" y="230" width="320" height="10" rx="5" fill="#E2E8F0"/>
  <rect x="400" y="255" width="290" height="10" rx="5" fill="#E2E8F0"/>
  <rect x="400" y="280" width="250" height="10" rx="5" fill="#E2E8F0"/>
  <rect x="400" y="305" width="210" height="10" rx="5" fill="#E2E8F0"/>
  <rect x="400" y="330" width="110" height="10" rx="5" fill="#E2E8F0"/>
  <rect x="370" y="425" width="420" height="70" rx="18" fill="#EFF6FF" stroke="#DBEAFE" stroke-width="2"/>
  <rect x="400" y="450" width="240" height="12" rx="6" fill="#60A5FA"/>
  <rect x="400" y="472" width="180" height="10" rx="5" fill="#93C5FD"/>
  <circle cx="765" cy="130" r="14" fill="#16A34A"/>
  <circle cx="725" cy="130" r="14" fill="#86EFAC"/>
  <circle cx="685" cy="130" r="14" fill="#DCFCE7"/>
</svg>

